<?xml version="1.0" standalone="no"?>
<!DOCTYPE svg PUBLIC "-//W3C//DTD SVG 20010904//EN"
 "http://www.w3.org/TR/2001/REC-SVG-20010904/DTD/svg10.dtd">
<svg version="1.0" xmlns="http://www.w3.org/2000/svg"
 width="446.000000pt" height="422.000000pt" viewBox="0 0 446.000000 422.000000"
 preserveAspectRatio="xMidYMid meet">

<g transform="translate(0.000000,422.000000) scale(0.100000,-0.100000)"
fill="#000000" stroke="none">
<path d="M4426 4185 c14 -19 28 -35 30 -35 2 0 4 16 4 35 0 32 -2 35 -31 35
l-30 0 27 -35z"/>
<path d="M1702 2619 c-81 -10 -175 -41 -277 -91 -78 -38 -181 -105 -173 -114
2 -2 38 9 79 25 132 51 219 66 379 66 232 -1 371 -38 668 -179 211 -100 290
-126 383 -126 121 0 213 47 295 150 24 30 42 55 41 57 -2 1 -33 -9 -70 -22
-122 -45 -250 -28 -450 58 -251 109 -399 158 -531 176 -88 12 -250 12 -344 0z"/>
<path d="M4323 1920 c-70 -28 -43 -150 33 -150 31 0 63 30 70 66 10 53 -52
104 -103 84z m65 -26 c45 -31 19 -104 -37 -104 -51 0 -72 60 -36 100 22 24 43
25 73 4z"/>
<path d="M4330 1880 c-18 -33 -5 -70 25 -70 16 0 25 6 25 15 0 8 -9 15 -20 15
-11 0 -20 6 -20 13 0 23 12 27 26 9 16 -21 32 -7 18 16 -16 25 -41 26 -54 2z"/>
<path d="M780 1560 l0 -260 49 0 49 0 3 158 c2 86 2 203 1 260 l-4 102 -49 0
-49 0 0 -260z"/>
<path d="M960 1810 c0 -6 43 -76 95 -157 l95 -146 0 -103 0 -104 55 0 55 0 0
104 0 104 100 148 c55 81 100 152 100 157 0 4 -26 7 -57 5 l-58 -3 -65 -108
c-36 -59 -69 -106 -75 -104 -5 2 -38 52 -73 110 l-63 107 -54 0 c-31 0 -55 -4
-55 -10z"/>
<path d="M1621 1801 c-19 -34 -211 -485 -211 -494 0 -4 23 -7 52 -5 l52 3 21
55 21 55 106 3 105 3 26 -61 26 -60 56 0 c30 0 55 3 55 7 0 4 -20 52 -45 107
-24 56 -73 169 -108 251 l-63 150 -41 3 c-33 2 -44 -1 -52 -17z m88 -212 c17
-44 29 -85 25 -90 -6 -10 -103 -12 -127 -3 -12 4 -8 21 21 94 19 49 39 87 43
85 4 -3 21 -42 38 -86z"/>
<path d="M2150 1803 c-48 -25 -80 -76 -80 -129 0 -58 40 -103 128 -145 83 -39
102 -55 102 -88 0 -32 -8 -44 -37 -60 -33 -17 -64 -13 -117 15 l-48 26 -29
-28 c-23 -22 -26 -30 -17 -41 23 -28 90 -54 151 -59 52 -5 69 -2 107 18 59 30
90 77 90 137 0 72 -27 106 -118 148 -91 42 -112 58 -112 89 0 52 76 72 140 37
l31 -18 25 30 c13 17 24 33 24 36 0 17 -81 43 -140 47 -48 2 -74 -2 -100 -15z"/>
<path d="M2616 1805 c-97 -34 -158 -122 -164 -236 -7 -114 35 -192 129 -244
72 -39 178 -42 251 -6 132 64 183 224 114 359 -59 116 -204 172 -330 127z
m164 -85 c119 -61 134 -231 28 -310 -43 -32 -122 -39 -172 -15 -100 48 -124
206 -43 287 60 59 121 72 187 38z"/>
<path d="M3050 1560 l0 -261 133 3 132 3 3 38 3 37 -85 0 -86 0 0 220 0 220
-50 0 -50 0 0 -260z"/>
<path d="M3526 1758 c-14 -35 -60 -144 -102 -243 -100 -238 -96 -215 -37 -215
l50 0 18 48 c27 72 26 72 136 72 l99 0 28 -57 27 -58 52 -3 52 -3 -66 158
c-36 87 -83 204 -105 261 l-40 102 -43 0 -43 0 -26 -62z m108 -171 c18 -47 31
-89 28 -92 -7 -7 -116 -6 -135 0 -11 5 -7 23 22 95 20 49 40 88 44 87 5 -1 23
-42 41 -90z"/>
<path d="M3890 1576 c0 -134 3 -251 6 -260 4 -11 19 -16 50 -16 l44 0 0 105 0
105 30 0 c25 0 37 -10 73 -59 24 -32 57 -80 73 -105 28 -45 30 -46 82 -46 62
0 65 -12 -32 135 -59 89 -64 100 -49 109 86 47 107 152 45 225 -34 41 -76 50
-214 51 l-108 0 0 -244z m240 139 c20 -18 25 -49 14 -80 -10 -25 -58 -45 -109
-45 l-45 0 0 69 c0 46 4 71 13 75 25 11 107 -1 127 -19z"/>
<path d="M170 1555 l0 -255 50 0 50 0 0 160 c0 88 4 160 8 160 5 0 24 -19 43
-42 18 -24 80 -96 137 -160 99 -113 104 -118 142 -118 l40 0 0 255 0 255 -50
0 -50 0 0 -170 0 -171 -66 78 c-36 43 -100 120 -142 171 -75 90 -77 92 -119
92 l-43 0 0 -255z"/>
</g>
</svg>
